<mxfile host="app.diagrams.net" modified="2022-04-01T10:15:48.832Z" agent="5.0 (Windows NT 10.0; Win64; x64) AppleWebKit/537.36 (KHTML, like Gecko) Chrome/99.0.4844.84 Safari/537.36" etag="mk7VTpBAq9wJPgRFiONp" version="17.3.0" type="github">
  <diagram id="py8D9hM39GQcvUwsP0z1" name="Page-1">
    <mxGraphModel dx="100" dy="59" grid="0" gridSize="10" guides="1" tooltips="1" connect="1" arrows="1" fold="1" page="1" pageScale="1" pageWidth="827" pageHeight="1169" math="0" shadow="0">
      <root>
        <mxCell id="0" />
        <mxCell id="1" parent="0" />
        <mxCell id="fVXnOX0XPYzyJKklndwi-1" value="&lt;b&gt;Employee&lt;/b&gt;" style="swimlane;fontStyle=0;align=center;verticalAlign=middle;childLayout=stackLayout;horizontal=1;startSize=29;horizontalStack=0;resizeParent=1;resizeParentMax=0;resizeLast=0;collapsible=0;marginBottom=0;html=1;fontSize=12;labelPosition=center;verticalLabelPosition=middle;container=0;strokeColor=default;swimlaneLine=1;rounded=0;shadow=0;glass=0;sketch=0;perimeterSpacing=0;" vertex="1" parent="1">
          <mxGeometry x="33" y="167" width="172" height="655" as="geometry" />
        </mxCell>
        <mxCell id="fVXnOX0XPYzyJKklndwi-2" value="- id: Long" style="text;strokeColor=none;fillColor=none;align=left;verticalAlign=top;spacingLeft=4;spacingRight=4;overflow=hidden;rotatable=0;points=[[0,0.5],[1,0.5]];portConstraint=eastwest;container=0;fontStyle=0" vertex="1" parent="fVXnOX0XPYzyJKklndwi-1">
          <mxGeometry y="29" width="172" height="26" as="geometry" />
        </mxCell>
        <mxCell id="fVXnOX0XPYzyJKklndwi-3" value="- firstName: String" style="text;strokeColor=none;fillColor=none;align=left;verticalAlign=top;spacingLeft=4;spacingRight=4;overflow=hidden;rotatable=0;points=[[0,0.5],[1,0.5]];portConstraint=eastwest;container=0;fontStyle=0" vertex="1" parent="fVXnOX0XPYzyJKklndwi-1">
          <mxGeometry y="55" width="172" height="26" as="geometry" />
        </mxCell>
        <mxCell id="fVXnOX0XPYzyJKklndwi-4" value="- lastName: String" style="text;strokeColor=none;fillColor=none;align=left;verticalAlign=top;spacingLeft=4;spacingRight=4;overflow=hidden;rotatable=0;points=[[0,0.5],[1,0.5]];portConstraint=eastwest;container=0;fontStyle=0" vertex="1" parent="fVXnOX0XPYzyJKklndwi-1">
          <mxGeometry y="81" width="172" height="26" as="geometry" />
        </mxCell>
        <mxCell id="fVXnOX0XPYzyJKklndwi-5" value="- displayName: String" style="text;strokeColor=none;fillColor=none;align=left;verticalAlign=top;spacingLeft=4;spacingRight=4;overflow=hidden;rotatable=0;points=[[0,0.5],[1,0.5]];portConstraint=eastwest;container=0;fontStyle=0" vertex="1" parent="fVXnOX0XPYzyJKklndwi-1">
          <mxGeometry y="107" width="172" height="26" as="geometry" />
        </mxCell>
        <mxCell id="fVXnOX0XPYzyJKklndwi-6" value="- jobTitle: String" style="text;strokeColor=none;fillColor=none;align=left;verticalAlign=top;spacingLeft=4;spacingRight=4;overflow=hidden;rotatable=0;points=[[0,0.5],[1,0.5]];portConstraint=eastwest;container=0;fontStyle=0" vertex="1" parent="fVXnOX0XPYzyJKklndwi-1">
          <mxGeometry y="133" width="172" height="26" as="geometry" />
        </mxCell>
        <mxCell id="fVXnOX0XPYzyJKklndwi-7" value="- birthDate: LocalDate" style="text;strokeColor=none;fillColor=none;align=left;verticalAlign=top;spacingLeft=4;spacingRight=4;overflow=hidden;rotatable=0;points=[[0,0.5],[1,0.5]];portConstraint=eastwest;container=0;fontStyle=0" vertex="1" parent="fVXnOX0XPYzyJKklndwi-1">
          <mxGeometry y="159" width="172" height="26" as="geometry" />
        </mxCell>
        <mxCell id="fVXnOX0XPYzyJKklndwi-8" value="- profilePicture: ImageBlob" style="text;whiteSpace=wrap;html=1;" vertex="1" parent="fVXnOX0XPYzyJKklndwi-1">
          <mxGeometry y="185" width="172" height="28" as="geometry" />
        </mxCell>
        <mxCell id="fVXnOX0XPYzyJKklndwi-9" value="- phoneNumber: String" style="text;strokeColor=none;fillColor=none;align=left;verticalAlign=top;spacingLeft=4;spacingRight=4;overflow=hidden;rotatable=0;points=[[0,0.5],[1,0.5]];portConstraint=eastwest;container=0;fontStyle=0" vertex="1" parent="fVXnOX0XPYzyJKklndwi-1">
          <mxGeometry y="213" width="172" height="26" as="geometry" />
        </mxCell>
        <mxCell id="fVXnOX0XPYzyJKklndwi-10" value="- secondPhoneNumber: String" style="text;strokeColor=none;fillColor=none;align=left;verticalAlign=top;spacingLeft=4;spacingRight=4;overflow=hidden;rotatable=0;points=[[0,0.5],[1,0.5]];portConstraint=eastwest;container=0;fontStyle=0" vertex="1" parent="fVXnOX0XPYzyJKklndwi-1">
          <mxGeometry y="239" width="172" height="26" as="geometry" />
        </mxCell>
        <mxCell id="fVXnOX0XPYzyJKklndwi-11" value="- email : String" style="text;strokeColor=none;fillColor=none;align=left;verticalAlign=top;spacingLeft=4;spacingRight=4;overflow=hidden;rotatable=0;points=[[0,0.5],[1,0.5]];portConstraint=eastwest;container=0;fontStyle=0" vertex="1" parent="fVXnOX0XPYzyJKklndwi-1">
          <mxGeometry y="265" width="172" height="26" as="geometry" />
        </mxCell>
        <mxCell id="fVXnOX0XPYzyJKklndwi-12" value="- personalEmail: String" style="text;strokeColor=none;fillColor=none;align=left;verticalAlign=top;spacingLeft=4;spacingRight=4;overflow=hidden;rotatable=0;points=[[0,0.5],[1,0.5]];portConstraint=eastwest;container=0;fontStyle=0" vertex="1" parent="fVXnOX0XPYzyJKklndwi-1">
          <mxGeometry y="291" width="172" height="26" as="geometry" />
        </mxCell>
        <mxCell id="fVXnOX0XPYzyJKklndwi-13" value="- preferredUsername: String" style="text;strokeColor=none;fillColor=none;align=left;verticalAlign=top;spacingLeft=4;spacingRight=4;overflow=hidden;rotatable=0;points=[[0,0.5],[1,0.5]];portConstraint=eastwest;container=0;fontStyle=0" vertex="1" parent="fVXnOX0XPYzyJKklndwi-1">
          <mxGeometry y="317" width="172" height="26" as="geometry" />
        </mxCell>
        <mxCell id="fVXnOX0XPYzyJKklndwi-14" value="- socialSecurityNumber: String" style="text;strokeColor=none;fillColor=none;align=left;verticalAlign=top;spacingLeft=4;spacingRight=4;overflow=hidden;rotatable=0;points=[[0,0.5],[1,0.5]];portConstraint=eastwest;container=0;fontStyle=0" vertex="1" parent="fVXnOX0XPYzyJKklndwi-1">
          <mxGeometry y="343" width="172" height="26" as="geometry" />
        </mxCell>
        <mxCell id="fVXnOX0XPYzyJKklndwi-15" value="- childrenNumber: Int" style="text;strokeColor=none;fillColor=none;align=left;verticalAlign=top;spacingLeft=4;spacingRight=4;overflow=hidden;rotatable=0;points=[[0,0.5],[1,0.5]];portConstraint=eastwest;container=0;fontStyle=0" vertex="1" parent="fVXnOX0XPYzyJKklndwi-1">
          <mxGeometry y="369" width="172" height="26" as="geometry" />
        </mxCell>
        <mxCell id="fVXnOX0XPYzyJKklndwi-16" value="- nationality: UUID" style="text;strokeColor=none;fillColor=none;align=left;verticalAlign=top;spacingLeft=4;spacingRight=4;overflow=hidden;rotatable=0;points=[[0,0.5],[1,0.5]];portConstraint=eastwest;container=0;fontStyle=0" vertex="1" parent="fVXnOX0XPYzyJKklndwi-1">
          <mxGeometry y="395" width="172" height="26" as="geometry" />
        </mxCell>
        <mxCell id="fVXnOX0XPYzyJKklndwi-17" value="- enabled: Boolean" style="text;strokeColor=none;fillColor=none;align=left;verticalAlign=top;spacingLeft=4;spacingRight=4;overflow=hidden;rotatable=0;points=[[0,0.5],[1,0.5]];portConstraint=eastwest;container=0;fontStyle=0" vertex="1" parent="fVXnOX0XPYzyJKklndwi-1">
          <mxGeometry y="421" width="172" height="26" as="geometry" />
        </mxCell>
        <mxCell id="fVXnOX0XPYzyJKklndwi-18" value="- bankAccount: UUID" style="text;strokeColor=none;fillColor=none;align=left;verticalAlign=top;spacingLeft=4;spacingRight=4;overflow=hidden;rotatable=0;points=[[0,0.5],[1,0.5]];portConstraint=eastwest;container=0;fontStyle=0" vertex="1" parent="fVXnOX0XPYzyJKklndwi-1">
          <mxGeometry y="447" width="172" height="26" as="geometry" />
        </mxCell>
        <mxCell id="fVXnOX0XPYzyJKklndwi-19" value="- hiringDate: LocalDate" style="text;strokeColor=none;fillColor=none;align=left;verticalAlign=top;spacingLeft=4;spacingRight=4;overflow=hidden;rotatable=0;points=[[0,0.5],[1,0.5]];portConstraint=eastwest;container=0;fontStyle=0" vertex="1" parent="fVXnOX0XPYzyJKklndwi-1">
          <mxGeometry y="473" width="172" height="26" as="geometry" />
        </mxCell>
        <mxCell id="fVXnOX0XPYzyJKklndwi-20" value="- resignationDate: LocalDate" style="text;strokeColor=none;fillColor=none;align=left;verticalAlign=top;spacingLeft=4;spacingRight=4;overflow=hidden;rotatable=0;points=[[0,0.5],[1,0.5]];portConstraint=eastwest;container=0;fontStyle=0" vertex="1" parent="fVXnOX0XPYzyJKklndwi-1">
          <mxGeometry y="499" width="172" height="26" as="geometry" />
        </mxCell>
        <mxCell id="fVXnOX0XPYzyJKklndwi-21" value="- totalYearsOfExperience: Float" style="text;strokeColor=none;fillColor=none;align=left;verticalAlign=top;spacingLeft=4;spacingRight=4;overflow=hidden;rotatable=0;points=[[0,0.5],[1,0.5]];portConstraint=eastwest;container=0;fontStyle=0" vertex="1" parent="fVXnOX0XPYzyJKklndwi-1">
          <mxGeometry y="525" width="172" height="26" as="geometry" />
        </mxCell>
        <mxCell id="fVXnOX0XPYzyJKklndwi-22" value="- totalYearsOfEducation: Float" style="text;strokeColor=none;fillColor=none;align=left;verticalAlign=top;spacingLeft=4;spacingRight=4;overflow=hidden;rotatable=0;points=[[0,0.5],[1,0.5]];portConstraint=eastwest;container=0;fontStyle=0" vertex="1" parent="fVXnOX0XPYzyJKklndwi-1">
          <mxGeometry y="551" width="172" height="26" as="geometry" />
        </mxCell>
        <mxCell id="fVXnOX0XPYzyJKklndwi-23" value="- permanentAddress: UUID" style="text;strokeColor=none;fillColor=none;align=left;verticalAlign=top;spacingLeft=4;spacingRight=4;overflow=hidden;rotatable=0;points=[[0,0.5],[1,0.5]];portConstraint=eastwest;container=0;fontStyle=0" vertex="1" parent="fVXnOX0XPYzyJKklndwi-1">
          <mxGeometry y="577" width="172" height="26" as="geometry" />
        </mxCell>
        <mxCell id="fVXnOX0XPYzyJKklndwi-24" value="- actualAddress: UUID" style="text;strokeColor=none;fillColor=none;align=left;verticalAlign=top;spacingLeft=4;spacingRight=4;overflow=hidden;rotatable=0;points=[[0,0.5],[1,0.5]];portConstraint=eastwest;container=0;fontStyle=0" vertex="1" parent="fVXnOX0XPYzyJKklndwi-1">
          <mxGeometry y="603" width="172" height="26" as="geometry" />
        </mxCell>
        <mxCell id="fVXnOX0XPYzyJKklndwi-25" value="- office: UUID" style="text;strokeColor=none;fillColor=none;align=left;verticalAlign=top;spacingLeft=4;spacingRight=4;overflow=hidden;rotatable=0;points=[[0,0.5],[1,0.5]];portConstraint=eastwest;container=0;fontStyle=0" vertex="1" parent="fVXnOX0XPYzyJKklndwi-1">
          <mxGeometry y="629" width="172" height="26" as="geometry" />
        </mxCell>
        <mxCell id="fVXnOX0XPYzyJKklndwi-31" style="edgeStyle=orthogonalEdgeStyle;rounded=0;orthogonalLoop=1;jettySize=auto;html=1;endArrow=none;endFill=0;endSize=5;startSize=5;" edge="1" parent="1" source="fVXnOX0XPYzyJKklndwi-26" target="fVXnOX0XPYzyJKklndwi-1">
          <mxGeometry relative="1" as="geometry">
            <Array as="points">
              <mxPoint x="238" y="303" />
              <mxPoint x="238" y="303" />
            </Array>
          </mxGeometry>
        </mxCell>
        <mxCell id="fVXnOX0XPYzyJKklndwi-32" value="*" style="edgeLabel;html=1;align=center;verticalAlign=middle;resizable=0;points=[];" vertex="1" connectable="0" parent="fVXnOX0XPYzyJKklndwi-31">
          <mxGeometry x="-0.9254" relative="1" as="geometry">
            <mxPoint x="-3" as="offset" />
          </mxGeometry>
        </mxCell>
        <mxCell id="fVXnOX0XPYzyJKklndwi-33" value="1" style="edgeLabel;html=1;align=center;verticalAlign=middle;resizable=0;points=[];" vertex="1" connectable="0" parent="fVXnOX0XPYzyJKklndwi-31">
          <mxGeometry x="0.8843" relative="1" as="geometry">
            <mxPoint x="4" as="offset" />
          </mxGeometry>
        </mxCell>
        <mxCell id="fVXnOX0XPYzyJKklndwi-38" style="edgeStyle=orthogonalEdgeStyle;rounded=0;orthogonalLoop=1;jettySize=auto;html=1;endArrow=none;endFill=0;startSize=5;endSize=5;" edge="1" parent="1" source="fVXnOX0XPYzyJKklndwi-26" target="fVXnOX0XPYzyJKklndwi-34">
          <mxGeometry relative="1" as="geometry">
            <Array as="points">
              <mxPoint x="340" y="145" />
              <mxPoint x="340" y="145" />
            </Array>
          </mxGeometry>
        </mxCell>
        <mxCell id="fVXnOX0XPYzyJKklndwi-39" value="*" style="edgeLabel;html=1;align=center;verticalAlign=middle;resizable=0;points=[];" vertex="1" connectable="0" parent="fVXnOX0XPYzyJKklndwi-38">
          <mxGeometry x="-0.8389" y="-1" relative="1" as="geometry">
            <mxPoint as="offset" />
          </mxGeometry>
        </mxCell>
        <mxCell id="fVXnOX0XPYzyJKklndwi-40" value="1" style="edgeLabel;html=1;align=center;verticalAlign=middle;resizable=0;points=[];" vertex="1" connectable="0" parent="fVXnOX0XPYzyJKklndwi-38">
          <mxGeometry x="0.8611" y="-1" relative="1" as="geometry">
            <mxPoint x="-1" y="1" as="offset" />
          </mxGeometry>
        </mxCell>
        <mxCell id="fVXnOX0XPYzyJKklndwi-26" value="&lt;div style=&quot;text-align: left&quot;&gt;&lt;span&gt;DepartmentAssignment&lt;/span&gt;&lt;/div&gt;" style="swimlane;fontStyle=1;align=center;verticalAlign=middle;childLayout=stackLayout;horizontal=1;startSize=29;horizontalStack=0;resizeParent=1;resizeParentMax=0;resizeLast=0;collapsible=0;marginBottom=0;html=1;fontSize=12;labelPosition=center;verticalLabelPosition=middle;container=0;swimlaneLine=1;rounded=0;sketch=0;glass=0;" vertex="1" parent="1">
          <mxGeometry x="259" y="249" width="149" height="107" as="geometry" />
        </mxCell>
        <mxCell id="fVXnOX0XPYzyJKklndwi-27" value="- id: UUID" style="text;strokeColor=none;fillColor=none;align=left;verticalAlign=top;spacingLeft=4;spacingRight=4;overflow=hidden;rotatable=0;points=[[0,0.5],[1,0.5]];portConstraint=eastwest;container=0;fontStyle=0" vertex="1" parent="fVXnOX0XPYzyJKklndwi-26">
          <mxGeometry y="29" width="149" height="26" as="geometry" />
        </mxCell>
        <mxCell id="fVXnOX0XPYzyJKklndwi-28" value="- startDate: LocalDate" style="text;strokeColor=none;fillColor=none;align=left;verticalAlign=top;spacingLeft=4;spacingRight=4;overflow=hidden;rotatable=0;points=[[0,0.5],[1,0.5]];portConstraint=eastwest;container=0;fontStyle=0" vertex="1" parent="fVXnOX0XPYzyJKklndwi-26">
          <mxGeometry y="55" width="149" height="26" as="geometry" />
        </mxCell>
        <mxCell id="fVXnOX0XPYzyJKklndwi-29" value="- endDate: LocalDate" style="text;strokeColor=none;fillColor=none;align=left;verticalAlign=top;spacingLeft=4;spacingRight=4;overflow=hidden;rotatable=0;points=[[0,0.5],[1,0.5]];portConstraint=eastwest;container=0;fontStyle=0" vertex="1" parent="fVXnOX0XPYzyJKklndwi-26">
          <mxGeometry y="81" width="149" height="26" as="geometry" />
        </mxCell>
        <mxCell id="fVXnOX0XPYzyJKklndwi-34" value="&lt;div style=&quot;text-align: left&quot;&gt;&lt;span&gt;Department&lt;/span&gt;&lt;/div&gt;" style="swimlane;fontStyle=1;align=center;verticalAlign=middle;childLayout=stackLayout;horizontal=1;startSize=29;horizontalStack=0;resizeParent=1;resizeParentMax=0;resizeLast=0;collapsible=0;marginBottom=0;html=1;fontSize=12;labelPosition=center;verticalLabelPosition=middle;container=0;swimlaneLine=1;rounded=0;sketch=0;glass=0;" vertex="1" parent="1">
          <mxGeometry x="271" y="6" width="149" height="107" as="geometry" />
        </mxCell>
        <mxCell id="fVXnOX0XPYzyJKklndwi-35" value="- id: UUID" style="text;strokeColor=none;fillColor=none;align=left;verticalAlign=top;spacingLeft=4;spacingRight=4;overflow=hidden;rotatable=0;points=[[0,0.5],[1,0.5]];portConstraint=eastwest;container=0;fontStyle=0" vertex="1" parent="fVXnOX0XPYzyJKklndwi-34">
          <mxGeometry y="29" width="149" height="26" as="geometry" />
        </mxCell>
        <mxCell id="fVXnOX0XPYzyJKklndwi-36" value="- startDate: LocalDate" style="text;strokeColor=none;fillColor=none;align=left;verticalAlign=top;spacingLeft=4;spacingRight=4;overflow=hidden;rotatable=0;points=[[0,0.5],[1,0.5]];portConstraint=eastwest;container=0;fontStyle=0" vertex="1" parent="fVXnOX0XPYzyJKklndwi-34">
          <mxGeometry y="55" width="149" height="26" as="geometry" />
        </mxCell>
        <mxCell id="fVXnOX0XPYzyJKklndwi-37" value="- endDate: LocalDate" style="text;strokeColor=none;fillColor=none;align=left;verticalAlign=top;spacingLeft=4;spacingRight=4;overflow=hidden;rotatable=0;points=[[0,0.5],[1,0.5]];portConstraint=eastwest;container=0;fontStyle=0" vertex="1" parent="fVXnOX0XPYzyJKklndwi-34">
          <mxGeometry y="81" width="149" height="26" as="geometry" />
        </mxCell>
        <mxCell id="fVXnOX0XPYzyJKklndwi-48" style="edgeStyle=orthogonalEdgeStyle;rounded=0;orthogonalLoop=1;jettySize=auto;html=1;endArrow=none;endFill=0;startSize=5;endSize=5;" edge="1" parent="1" source="fVXnOX0XPYzyJKklndwi-41" target="fVXnOX0XPYzyJKklndwi-34">
          <mxGeometry relative="1" as="geometry">
            <Array as="points">
              <mxPoint x="531" y="90" />
            </Array>
          </mxGeometry>
        </mxCell>
        <mxCell id="fVXnOX0XPYzyJKklndwi-49" value="*" style="edgeLabel;html=1;align=center;verticalAlign=middle;resizable=0;points=[];" vertex="1" connectable="0" parent="fVXnOX0XPYzyJKklndwi-48">
          <mxGeometry x="-0.8909" y="1" relative="1" as="geometry">
            <mxPoint as="offset" />
          </mxGeometry>
        </mxCell>
        <mxCell id="fVXnOX0XPYzyJKklndwi-50" value="1" style="edgeLabel;html=1;align=center;verticalAlign=middle;resizable=0;points=[];" vertex="1" connectable="0" parent="fVXnOX0XPYzyJKklndwi-48">
          <mxGeometry x="0.9087" y="1" relative="1" as="geometry">
            <mxPoint as="offset" />
          </mxGeometry>
        </mxCell>
        <mxCell id="fVXnOX0XPYzyJKklndwi-41" value="&lt;div style=&quot;text-align: left&quot;&gt;GradeLevelAssignment&lt;br&gt;&lt;/div&gt;" style="swimlane;fontStyle=1;align=center;verticalAlign=middle;childLayout=stackLayout;horizontal=1;startSize=29;horizontalStack=0;resizeParent=1;resizeParentMax=0;resizeLast=0;collapsible=0;marginBottom=0;html=1;fontSize=12;labelPosition=center;verticalLabelPosition=middle;container=0;swimlaneLine=1;rounded=0;sketch=0;glass=0;" vertex="1" parent="1">
          <mxGeometry x="456" y="249" width="149" height="107" as="geometry" />
        </mxCell>
        <mxCell id="fVXnOX0XPYzyJKklndwi-42" value="- id: UUID" style="text;strokeColor=none;fillColor=none;align=left;verticalAlign=top;spacingLeft=4;spacingRight=4;overflow=hidden;rotatable=0;points=[[0,0.5],[1,0.5]];portConstraint=eastwest;container=0;fontStyle=0" vertex="1" parent="fVXnOX0XPYzyJKklndwi-41">
          <mxGeometry y="29" width="149" height="26" as="geometry" />
        </mxCell>
        <mxCell id="fVXnOX0XPYzyJKklndwi-43" value="- startDate: LocalDate" style="text;strokeColor=none;fillColor=none;align=left;verticalAlign=top;spacingLeft=4;spacingRight=4;overflow=hidden;rotatable=0;points=[[0,0.5],[1,0.5]];portConstraint=eastwest;container=0;fontStyle=0" vertex="1" parent="fVXnOX0XPYzyJKklndwi-41">
          <mxGeometry y="55" width="149" height="26" as="geometry" />
        </mxCell>
        <mxCell id="fVXnOX0XPYzyJKklndwi-44" value="- endDate: LocalDate" style="text;strokeColor=none;fillColor=none;align=left;verticalAlign=top;spacingLeft=4;spacingRight=4;overflow=hidden;rotatable=0;points=[[0,0.5],[1,0.5]];portConstraint=eastwest;container=0;fontStyle=0" vertex="1" parent="fVXnOX0XPYzyJKklndwi-41">
          <mxGeometry y="81" width="149" height="26" as="geometry" />
        </mxCell>
        <mxCell id="fVXnOX0XPYzyJKklndwi-45" style="edgeStyle=orthogonalEdgeStyle;rounded=0;orthogonalLoop=1;jettySize=auto;html=1;endArrow=none;endFill=0;startSize=5;endSize=5;" edge="1" parent="1" source="fVXnOX0XPYzyJKklndwi-1" target="fVXnOX0XPYzyJKklndwi-41">
          <mxGeometry relative="1" as="geometry">
            <Array as="points">
              <mxPoint x="493" y="220" />
            </Array>
          </mxGeometry>
        </mxCell>
        <mxCell id="fVXnOX0XPYzyJKklndwi-46" value="*" style="edgeLabel;html=1;align=center;verticalAlign=middle;resizable=0;points=[];" vertex="1" connectable="0" parent="fVXnOX0XPYzyJKklndwi-45">
          <mxGeometry x="0.9632" relative="1" as="geometry">
            <mxPoint y="-3" as="offset" />
          </mxGeometry>
        </mxCell>
        <mxCell id="fVXnOX0XPYzyJKklndwi-47" value="1" style="edgeLabel;html=1;align=center;verticalAlign=middle;resizable=0;points=[];" vertex="1" connectable="0" parent="fVXnOX0XPYzyJKklndwi-45">
          <mxGeometry x="-0.9622" relative="1" as="geometry">
            <mxPoint as="offset" />
          </mxGeometry>
        </mxCell>
        <mxCell id="fVXnOX0XPYzyJKklndwi-57" style="edgeStyle=orthogonalEdgeStyle;rounded=0;orthogonalLoop=1;jettySize=auto;html=1;endArrow=none;endFill=0;startSize=5;endSize=5;" edge="1" parent="1" source="fVXnOX0XPYzyJKklndwi-51" target="fVXnOX0XPYzyJKklndwi-41">
          <mxGeometry relative="1" as="geometry">
            <Array as="points">
              <mxPoint x="531" y="379" />
              <mxPoint x="531" y="379" />
            </Array>
          </mxGeometry>
        </mxCell>
        <mxCell id="fVXnOX0XPYzyJKklndwi-58" value="*" style="edgeLabel;html=1;align=center;verticalAlign=middle;resizable=0;points=[];" vertex="1" connectable="0" parent="fVXnOX0XPYzyJKklndwi-57">
          <mxGeometry x="0.7727" relative="1" as="geometry">
            <mxPoint x="-1" y="2" as="offset" />
          </mxGeometry>
        </mxCell>
        <mxCell id="fVXnOX0XPYzyJKklndwi-59" value="1" style="edgeLabel;html=1;align=center;verticalAlign=middle;resizable=0;points=[];" vertex="1" connectable="0" parent="fVXnOX0XPYzyJKklndwi-57">
          <mxGeometry x="-0.6305" y="1" relative="1" as="geometry">
            <mxPoint as="offset" />
          </mxGeometry>
        </mxCell>
        <mxCell id="fVXnOX0XPYzyJKklndwi-51" value="GradeLevel" style="swimlane;fontStyle=1;align=center;verticalAlign=middle;childLayout=stackLayout;horizontal=1;startSize=29;horizontalStack=0;resizeParent=1;resizeParentMax=0;resizeLast=0;collapsible=0;marginBottom=0;html=1;fontSize=12;labelPosition=center;verticalLabelPosition=middle;container=0;swimlaneLine=1;rounded=0;sketch=0;glass=0;" vertex="1" parent="1">
          <mxGeometry x="436" y="411" width="200" height="159" as="geometry" />
        </mxCell>
        <mxCell id="fVXnOX0XPYzyJKklndwi-52" value="- id: UUID" style="text;strokeColor=none;fillColor=none;align=left;verticalAlign=top;spacingLeft=4;spacingRight=4;overflow=hidden;rotatable=0;points=[[0,0.5],[1,0.5]];portConstraint=eastwest;container=0;fontStyle=0" vertex="1" parent="fVXnOX0XPYzyJKklndwi-51">
          <mxGeometry y="29" width="200" height="26" as="geometry" />
        </mxCell>
        <mxCell id="fVXnOX0XPYzyJKklndwi-53" value="- name: String" style="text;strokeColor=none;fillColor=none;align=left;verticalAlign=top;spacingLeft=4;spacingRight=4;overflow=hidden;rotatable=0;points=[[0,0.5],[1,0.5]];portConstraint=eastwest;container=0;fontStyle=0" vertex="1" parent="fVXnOX0XPYzyJKklndwi-51">
          <mxGeometry y="55" width="200" height="26" as="geometry" />
        </mxCell>
        <mxCell id="fVXnOX0XPYzyJKklndwi-54" value="- description: String" style="text;strokeColor=none;fillColor=none;align=left;verticalAlign=top;spacingLeft=4;spacingRight=4;overflow=hidden;rotatable=0;points=[[0,0.5],[1,0.5]];portConstraint=eastwest;container=0;fontStyle=0" vertex="1" parent="fVXnOX0XPYzyJKklndwi-51">
          <mxGeometry y="81" width="200" height="26" as="geometry" />
        </mxCell>
        <mxCell id="fVXnOX0XPYzyJKklndwi-55" value="- averageYearsOfExperience: Float" style="text;strokeColor=none;fillColor=none;align=left;verticalAlign=top;spacingLeft=4;spacingRight=4;overflow=hidden;rotatable=0;points=[[0,0.5],[1,0.5]];portConstraint=eastwest;container=0;fontStyle=0" vertex="1" parent="fVXnOX0XPYzyJKklndwi-51">
          <mxGeometry y="107" width="200" height="26" as="geometry" />
        </mxCell>
        <mxCell id="fVXnOX0XPYzyJKklndwi-56" value="- averageYearsOfEducation: Float" style="text;strokeColor=none;fillColor=none;align=left;verticalAlign=top;spacingLeft=4;spacingRight=4;overflow=hidden;rotatable=0;points=[[0,0.5],[1,0.5]];portConstraint=eastwest;container=0;fontStyle=0" vertex="1" parent="fVXnOX0XPYzyJKklndwi-51">
          <mxGeometry y="133" width="200" height="26" as="geometry" />
        </mxCell>
        <mxCell id="fVXnOX0XPYzyJKklndwi-64" style="edgeStyle=orthogonalEdgeStyle;rounded=0;orthogonalLoop=1;jettySize=auto;html=1;endArrow=none;endFill=0;startSize=5;endSize=5;" edge="1" parent="1" source="fVXnOX0XPYzyJKklndwi-60" target="fVXnOX0XPYzyJKklndwi-34">
          <mxGeometry relative="1" as="geometry">
            <mxPoint x="730" y="261" as="sourcePoint" />
            <Array as="points">
              <mxPoint x="730" y="54" />
            </Array>
          </mxGeometry>
        </mxCell>
        <mxCell id="fVXnOX0XPYzyJKklndwi-65" value="*" style="edgeLabel;html=1;align=center;verticalAlign=middle;resizable=0;points=[];" vertex="1" connectable="0" parent="fVXnOX0XPYzyJKklndwi-64">
          <mxGeometry x="-0.9604" relative="1" as="geometry">
            <mxPoint as="offset" />
          </mxGeometry>
        </mxCell>
        <mxCell id="fVXnOX0XPYzyJKklndwi-66" value="1" style="edgeLabel;html=1;align=center;verticalAlign=middle;resizable=0;points=[];" vertex="1" connectable="0" parent="fVXnOX0XPYzyJKklndwi-64">
          <mxGeometry x="0.9511" relative="1" as="geometry">
            <mxPoint as="offset" />
          </mxGeometry>
        </mxCell>
        <mxCell id="fVXnOX0XPYzyJKklndwi-67" style="edgeStyle=orthogonalEdgeStyle;rounded=0;orthogonalLoop=1;jettySize=auto;html=1;endArrow=none;endFill=0;startSize=5;endSize=5;" edge="1" parent="1" source="fVXnOX0XPYzyJKklndwi-60" target="fVXnOX0XPYzyJKklndwi-1">
          <mxGeometry relative="1" as="geometry">
            <Array as="points">
              <mxPoint x="696" y="191" />
            </Array>
          </mxGeometry>
        </mxCell>
        <mxCell id="fVXnOX0XPYzyJKklndwi-68" value="*" style="edgeLabel;html=1;align=center;verticalAlign=middle;resizable=0;points=[];" vertex="1" connectable="0" parent="fVXnOX0XPYzyJKklndwi-67">
          <mxGeometry x="-0.9555" relative="1" as="geometry">
            <mxPoint as="offset" />
          </mxGeometry>
        </mxCell>
        <mxCell id="fVXnOX0XPYzyJKklndwi-69" value="1" style="edgeLabel;html=1;align=center;verticalAlign=middle;resizable=0;points=[];" vertex="1" connectable="0" parent="fVXnOX0XPYzyJKklndwi-67">
          <mxGeometry x="0.9658" y="-1" relative="1" as="geometry">
            <mxPoint x="-5" as="offset" />
          </mxGeometry>
        </mxCell>
        <mxCell id="fVXnOX0XPYzyJKklndwi-60" value="RoleAssignment" style="swimlane;fontStyle=1;align=center;verticalAlign=middle;childLayout=stackLayout;horizontal=1;startSize=29;horizontalStack=0;resizeParent=1;resizeParentMax=0;resizeLast=0;collapsible=0;marginBottom=0;html=1;fontSize=12;labelPosition=center;verticalLabelPosition=middle;container=0;swimlaneLine=1;rounded=0;sketch=0;glass=0;" vertex="1" parent="1">
          <mxGeometry x="655" y="249" width="149" height="107" as="geometry" />
        </mxCell>
        <mxCell id="fVXnOX0XPYzyJKklndwi-61" value="- id: UUID" style="text;strokeColor=none;fillColor=none;align=left;verticalAlign=top;spacingLeft=4;spacingRight=4;overflow=hidden;rotatable=0;points=[[0,0.5],[1,0.5]];portConstraint=eastwest;container=0;fontStyle=0" vertex="1" parent="fVXnOX0XPYzyJKklndwi-60">
          <mxGeometry y="29" width="149" height="26" as="geometry" />
        </mxCell>
        <mxCell id="fVXnOX0XPYzyJKklndwi-62" value="- startDate: LocalDate" style="text;strokeColor=none;fillColor=none;align=left;verticalAlign=top;spacingLeft=4;spacingRight=4;overflow=hidden;rotatable=0;points=[[0,0.5],[1,0.5]];portConstraint=eastwest;container=0;fontStyle=0" vertex="1" parent="fVXnOX0XPYzyJKklndwi-60">
          <mxGeometry y="55" width="149" height="26" as="geometry" />
        </mxCell>
        <mxCell id="fVXnOX0XPYzyJKklndwi-63" value="- endDate: LocalDate" style="text;strokeColor=none;fillColor=none;align=left;verticalAlign=top;spacingLeft=4;spacingRight=4;overflow=hidden;rotatable=0;points=[[0,0.5],[1,0.5]];portConstraint=eastwest;container=0;fontStyle=0" vertex="1" parent="fVXnOX0XPYzyJKklndwi-60">
          <mxGeometry y="81" width="149" height="26" as="geometry" />
        </mxCell>
        <mxCell id="fVXnOX0XPYzyJKklndwi-70" value="Role" style="swimlane;fontStyle=1;align=center;verticalAlign=middle;childLayout=stackLayout;horizontal=1;startSize=29;horizontalStack=0;resizeParent=1;resizeParentMax=0;resizeLast=0;collapsible=0;marginBottom=0;html=1;fontSize=12;labelPosition=center;verticalLabelPosition=middle;container=0;swimlaneLine=1;rounded=0;sketch=0;glass=0;" vertex="1" parent="1">
          <mxGeometry x="664" y="409" width="149" height="185" as="geometry" />
        </mxCell>
        <mxCell id="fVXnOX0XPYzyJKklndwi-71" value="- id: UUID" style="text;strokeColor=none;fillColor=none;align=left;verticalAlign=top;spacingLeft=4;spacingRight=4;overflow=hidden;rotatable=0;points=[[0,0.5],[1,0.5]];portConstraint=eastwest;container=0;fontStyle=0" vertex="1" parent="fVXnOX0XPYzyJKklndwi-70">
          <mxGeometry y="29" width="149" height="26" as="geometry" />
        </mxCell>
        <mxCell id="fVXnOX0XPYzyJKklndwi-72" value="- name: String" style="text;strokeColor=none;fillColor=none;align=left;verticalAlign=top;spacingLeft=4;spacingRight=4;overflow=hidden;rotatable=0;points=[[0,0.5],[1,0.5]];portConstraint=eastwest;container=0;fontStyle=0" vertex="1" parent="fVXnOX0XPYzyJKklndwi-70">
          <mxGeometry y="55" width="149" height="26" as="geometry" />
        </mxCell>
        <mxCell id="fVXnOX0XPYzyJKklndwi-73" value="- description: String" style="text;strokeColor=none;fillColor=none;align=left;verticalAlign=top;spacingLeft=4;spacingRight=4;overflow=hidden;rotatable=0;points=[[0,0.5],[1,0.5]];portConstraint=eastwest;container=0;fontStyle=0" vertex="1" parent="fVXnOX0XPYzyJKklndwi-70">
          <mxGeometry y="81" width="149" height="26" as="geometry" />
        </mxCell>
        <mxCell id="fVXnOX0XPYzyJKklndwi-74" value="- defaultJobTitle: String" style="text;strokeColor=none;fillColor=none;align=left;verticalAlign=top;spacingLeft=4;spacingRight=4;overflow=hidden;rotatable=0;points=[[0,0.5],[1,0.5]];portConstraint=eastwest;container=0;fontStyle=0" vertex="1" parent="fVXnOX0XPYzyJKklndwi-70">
          <mxGeometry y="107" width="149" height="26" as="geometry" />
        </mxCell>
        <mxCell id="fVXnOX0XPYzyJKklndwi-75" value="- jobDescription: UUID" style="text;strokeColor=none;fillColor=none;align=left;verticalAlign=top;spacingLeft=4;spacingRight=4;overflow=hidden;rotatable=0;points=[[0,0.5],[1,0.5]];portConstraint=eastwest;container=0;fontStyle=0" vertex="1" parent="fVXnOX0XPYzyJKklndwi-70">
          <mxGeometry y="133" width="149" height="26" as="geometry" />
        </mxCell>
        <mxCell id="fVXnOX0XPYzyJKklndwi-76" value="- producing: Boolean" style="text;strokeColor=none;fillColor=none;align=left;verticalAlign=top;spacingLeft=4;spacingRight=4;overflow=hidden;rotatable=0;points=[[0,0.5],[1,0.5]];portConstraint=eastwest;container=0;fontStyle=0" vertex="1" parent="fVXnOX0XPYzyJKklndwi-70">
          <mxGeometry y="159" width="149" height="26" as="geometry" />
        </mxCell>
        <mxCell id="fVXnOX0XPYzyJKklndwi-83" style="edgeStyle=orthogonalEdgeStyle;rounded=0;orthogonalLoop=1;jettySize=auto;html=1;endArrow=none;endFill=0;startSize=5;endSize=5;startArrow=classic;startFill=1;dashed=1;" edge="1" parent="1" source="fVXnOX0XPYzyJKklndwi-77" target="fVXnOX0XPYzyJKklndwi-1">
          <mxGeometry relative="1" as="geometry">
            <mxPoint x="205" y="674.0666666666666" as="targetPoint" />
            <Array as="points">
              <mxPoint x="316" y="668" />
            </Array>
          </mxGeometry>
        </mxCell>
        <mxCell id="fVXnOX0XPYzyJKklndwi-77" value="&lt;b&gt;&amp;lt;&amp;lt;enum&amp;gt;&amp;gt;&lt;/b&gt;&lt;br&gt;&lt;div style=&quot;text-align: left&quot;&gt;&lt;b&gt;Gender&lt;/b&gt;&lt;br&gt;&lt;/div&gt;" style="swimlane;fontStyle=0;align=center;verticalAlign=middle;childLayout=stackLayout;horizontal=1;startSize=29;horizontalStack=0;resizeParent=1;resizeParentMax=0;resizeLast=0;collapsible=0;marginBottom=0;html=1;fontSize=12;labelPosition=center;verticalLabelPosition=middle;container=0;swimlaneLine=1;rounded=0;sketch=0;glass=0;" vertex="1" parent="1">
          <mxGeometry x="250" y="715" width="127" height="81" as="geometry" />
        </mxCell>
        <mxCell id="fVXnOX0XPYzyJKklndwi-78" value="MALE" style="text;strokeColor=none;fillColor=none;align=left;verticalAlign=top;spacingLeft=4;spacingRight=4;overflow=hidden;rotatable=0;points=[[0,0.5],[1,0.5]];portConstraint=eastwest;container=0;fontStyle=0" vertex="1" parent="fVXnOX0XPYzyJKklndwi-77">
          <mxGeometry y="29" width="127" height="26" as="geometry" />
        </mxCell>
        <mxCell id="fVXnOX0XPYzyJKklndwi-79" value="FEMALE" style="text;strokeColor=none;fillColor=none;align=left;verticalAlign=top;spacingLeft=4;spacingRight=4;overflow=hidden;rotatable=0;points=[[0,0.5],[1,0.5]];portConstraint=eastwest;container=0;fontStyle=0" vertex="1" parent="fVXnOX0XPYzyJKklndwi-77">
          <mxGeometry y="55" width="127" height="26" as="geometry" />
        </mxCell>
        <mxCell id="fVXnOX0XPYzyJKklndwi-90" style="edgeStyle=orthogonalEdgeStyle;rounded=0;orthogonalLoop=1;jettySize=auto;html=1;dashed=1;startArrow=classic;startFill=1;endArrow=none;endFill=0;startSize=5;endSize=5;" edge="1" parent="1" source="fVXnOX0XPYzyJKklndwi-84" target="fVXnOX0XPYzyJKklndwi-1">
          <mxGeometry relative="1" as="geometry">
            <mxPoint x="205" y="657" as="targetPoint" />
            <Array as="points">
              <mxPoint x="479" y="645" />
            </Array>
          </mxGeometry>
        </mxCell>
        <mxCell id="fVXnOX0XPYzyJKklndwi-84" value="&lt;b&gt;&amp;lt;&amp;lt;enum&amp;gt;&amp;gt;&lt;/b&gt;&lt;br&gt;&lt;div style=&quot;text-align: left&quot;&gt;&lt;b&gt;CivilStatus&lt;/b&gt;&lt;br&gt;&lt;/div&gt;" style="swimlane;fontStyle=0;align=center;verticalAlign=middle;childLayout=stackLayout;horizontal=1;startSize=29;horizontalStack=0;resizeParent=1;resizeParentMax=0;resizeLast=0;collapsible=0;marginBottom=0;html=1;fontSize=12;labelPosition=center;verticalLabelPosition=middle;container=0;swimlaneLine=1;rounded=0;sketch=0;glass=0;" vertex="1" parent="1">
          <mxGeometry x="410" y="715" width="127" height="159" as="geometry" />
        </mxCell>
        <mxCell id="fVXnOX0XPYzyJKklndwi-85" value="SINGLE" style="text;strokeColor=none;fillColor=none;align=left;verticalAlign=top;spacingLeft=4;spacingRight=4;overflow=hidden;rotatable=0;points=[[0,0.5],[1,0.5]];portConstraint=eastwest;container=0;fontStyle=0" vertex="1" parent="fVXnOX0XPYzyJKklndwi-84">
          <mxGeometry y="29" width="127" height="26" as="geometry" />
        </mxCell>
        <mxCell id="fVXnOX0XPYzyJKklndwi-86" value="MARRIED" style="text;strokeColor=none;fillColor=none;align=left;verticalAlign=top;spacingLeft=4;spacingRight=4;overflow=hidden;rotatable=0;points=[[0,0.5],[1,0.5]];portConstraint=eastwest;container=0;fontStyle=0" vertex="1" parent="fVXnOX0XPYzyJKklndwi-84">
          <mxGeometry y="55" width="127" height="26" as="geometry" />
        </mxCell>
        <mxCell id="fVXnOX0XPYzyJKklndwi-87" value="WIDOWED" style="text;strokeColor=none;fillColor=none;align=left;verticalAlign=top;spacingLeft=4;spacingRight=4;overflow=hidden;rotatable=0;points=[[0,0.5],[1,0.5]];portConstraint=eastwest;container=0;fontStyle=0" vertex="1" parent="fVXnOX0XPYzyJKklndwi-84">
          <mxGeometry y="81" width="127" height="26" as="geometry" />
        </mxCell>
        <mxCell id="fVXnOX0XPYzyJKklndwi-88" value="DIVORCED" style="text;strokeColor=none;fillColor=none;align=left;verticalAlign=top;spacingLeft=4;spacingRight=4;overflow=hidden;rotatable=0;points=[[0,0.5],[1,0.5]];portConstraint=eastwest;container=0;fontStyle=0" vertex="1" parent="fVXnOX0XPYzyJKklndwi-84">
          <mxGeometry y="107" width="127" height="26" as="geometry" />
        </mxCell>
        <mxCell id="fVXnOX0XPYzyJKklndwi-89" value="SEPARATED" style="text;strokeColor=none;fillColor=none;align=left;verticalAlign=top;spacingLeft=4;spacingRight=4;overflow=hidden;rotatable=0;points=[[0,0.5],[1,0.5]];portConstraint=eastwest;container=0;fontStyle=0" vertex="1" parent="fVXnOX0XPYzyJKklndwi-84">
          <mxGeometry y="133" width="127" height="26" as="geometry" />
        </mxCell>
        <mxCell id="fVXnOX0XPYzyJKklndwi-101" value="" style="edgeStyle=orthogonalEdgeStyle;rounded=0;orthogonalLoop=1;jettySize=auto;html=1;dashed=1;startArrow=classic;startFill=1;endArrow=none;endFill=0;startSize=5;endSize=5;" edge="1" parent="1" source="fVXnOX0XPYzyJKklndwi-92" target="fVXnOX0XPYzyJKklndwi-1">
          <mxGeometry x="-0.0021" y="3" relative="1" as="geometry">
            <mxPoint x="625.5333333333335" y="716.9300000000001" as="sourcePoint" />
            <mxPoint x="205" y="625" as="targetPoint" />
            <Array as="points">
              <mxPoint x="626" y="625" />
            </Array>
            <mxPoint as="offset" />
          </mxGeometry>
        </mxCell>
        <mxCell id="fVXnOX0XPYzyJKklndwi-92" value="&lt;b&gt;&amp;lt;&amp;lt;enum&amp;gt;&amp;gt;&lt;/b&gt;&lt;br&gt;&lt;div style=&quot;text-align: left&quot;&gt;&lt;b&gt;BloodGroup&lt;/b&gt;&lt;br&gt;&lt;/div&gt;" style="swimlane;fontStyle=0;align=center;verticalAlign=middle;childLayout=stackLayout;horizontal=1;startSize=29;horizontalStack=0;resizeParent=1;resizeParentMax=0;resizeLast=0;collapsible=0;marginBottom=0;html=1;fontSize=12;labelPosition=center;verticalLabelPosition=middle;container=0;swimlaneLine=1;rounded=0;sketch=0;glass=0;" vertex="1" parent="1">
          <mxGeometry x="570" y="716.9300000000001" width="127" height="237" as="geometry" />
        </mxCell>
        <mxCell id="fVXnOX0XPYzyJKklndwi-93" value="A_POSITIVE" style="text;strokeColor=none;fillColor=none;align=left;verticalAlign=top;spacingLeft=4;spacingRight=4;overflow=hidden;rotatable=0;points=[[0,0.5],[1,0.5]];portConstraint=eastwest;container=0;fontStyle=0" vertex="1" parent="fVXnOX0XPYzyJKklndwi-92">
          <mxGeometry y="29" width="127" height="26" as="geometry" />
        </mxCell>
        <mxCell id="fVXnOX0XPYzyJKklndwi-94" value="A_NEGATIVE" style="text;strokeColor=none;fillColor=none;align=left;verticalAlign=top;spacingLeft=4;spacingRight=4;overflow=hidden;rotatable=0;points=[[0,0.5],[1,0.5]];portConstraint=eastwest;container=0;fontStyle=0" vertex="1" parent="fVXnOX0XPYzyJKklndwi-92">
          <mxGeometry y="55" width="127" height="26" as="geometry" />
        </mxCell>
        <mxCell id="fVXnOX0XPYzyJKklndwi-95" value="B_POSITIVE" style="text;strokeColor=none;fillColor=none;align=left;verticalAlign=top;spacingLeft=4;spacingRight=4;overflow=hidden;rotatable=0;points=[[0,0.5],[1,0.5]];portConstraint=eastwest;container=0;fontStyle=0" vertex="1" parent="fVXnOX0XPYzyJKklndwi-92">
          <mxGeometry y="81" width="127" height="26" as="geometry" />
        </mxCell>
        <mxCell id="fVXnOX0XPYzyJKklndwi-96" value="B_NEGATIVE" style="text;strokeColor=none;fillColor=none;align=left;verticalAlign=top;spacingLeft=4;spacingRight=4;overflow=hidden;rotatable=0;points=[[0,0.5],[1,0.5]];portConstraint=eastwest;container=0;fontStyle=0" vertex="1" parent="fVXnOX0XPYzyJKklndwi-92">
          <mxGeometry y="107" width="127" height="26" as="geometry" />
        </mxCell>
        <mxCell id="fVXnOX0XPYzyJKklndwi-97" value="O_POSITIVE" style="text;strokeColor=none;fillColor=none;align=left;verticalAlign=top;spacingLeft=4;spacingRight=4;overflow=hidden;rotatable=0;points=[[0,0.5],[1,0.5]];portConstraint=eastwest;container=0;fontStyle=0" vertex="1" parent="fVXnOX0XPYzyJKklndwi-92">
          <mxGeometry y="133" width="127" height="26" as="geometry" />
        </mxCell>
        <mxCell id="fVXnOX0XPYzyJKklndwi-98" value="O_NEGATIVE" style="text;strokeColor=none;fillColor=none;align=left;verticalAlign=top;spacingLeft=4;spacingRight=4;overflow=hidden;rotatable=0;points=[[0,0.5],[1,0.5]];portConstraint=eastwest;container=0;fontStyle=0" vertex="1" parent="fVXnOX0XPYzyJKklndwi-92">
          <mxGeometry y="159" width="127" height="26" as="geometry" />
        </mxCell>
        <mxCell id="fVXnOX0XPYzyJKklndwi-99" value="AB_POSITIVE" style="text;strokeColor=none;fillColor=none;align=left;verticalAlign=top;spacingLeft=4;spacingRight=4;overflow=hidden;rotatable=0;points=[[0,0.5],[1,0.5]];portConstraint=eastwest;container=0;fontStyle=0" vertex="1" parent="fVXnOX0XPYzyJKklndwi-92">
          <mxGeometry y="185" width="127" height="26" as="geometry" />
        </mxCell>
        <mxCell id="fVXnOX0XPYzyJKklndwi-100" value="AB_NEGATIVE" style="text;strokeColor=none;fillColor=none;align=left;verticalAlign=top;spacingLeft=4;spacingRight=4;overflow=hidden;rotatable=0;points=[[0,0.5],[1,0.5]];portConstraint=eastwest;container=0;fontStyle=0" vertex="1" parent="fVXnOX0XPYzyJKklndwi-92">
          <mxGeometry y="211" width="127" height="26" as="geometry" />
        </mxCell>
      </root>
    </mxGraphModel>
  </diagram>
</mxfile>
